
Rowan Atkinson returns to the role of the accidental secret agent who doesn't know fear or danger in the comedy spy-thriller Johnny English Reborn. In his latest adventure, the most unlikely intelligence officer in Her Majesty's Secret Service must stop a group of international assassins before they eliminate a world leader and cause global chaos. In the years since MI-7's top spy vanished off the grid, he has been honing his unique skills in a remote region of Asia. But when his agency superiors learn of an attempt against the Chinese premier's life, they must hunt down the highly unorthodox agent. Now that the world needs him once again, Johnny English is back in action. With one shot at redemption, he must employ the latest in hi-tech gadgets to unravel a web of conspiracy that runs throughout the KGB, CIA and even MI-7.
  http://www.imdb.com/title/tt1634122/

Language: English
Format : Matroska
Format version : Version 2
File size : 1.28 GiB
Duration : 1h 41mn
Overall bit rate : 1 806 Kbps
Writing application : Lavf53.8.0
Writing library : Lavf53.8.0

Video
ID : 1
Format : AVC
Format/Info : Advanced Video Codec
Format profile : High@L3.1
Format settings, CABAC : Yes
Format settings, ReFrames : 3 frames
Codec ID : V_MPEG4/ISO/AVC
Duration : 1h 41mn
Bit rate : 1 098 Kbps
Width : 1 280 pixels
Height : 720 pixels
Display aspect ratio : 16:9
Frame rate mode : Variable
Frame rate : 23.976 fps
Color space : YUV
Chroma subsampling : 4:2:0
Bit depth : 8 bits
Scan type : Progressive
Bits/(Pixel*Frame) : 0.050
Stream size : 796 MiB (61%)
Language : English
Default : Yes
Forced : No
PART_NUMBER : 0

Audio #1
ID : 2
Format : AC-3
Format/Info : Audio Coding 3
Mode extension : CM (complete main)
Codec ID : A_AC3
Duration : 1h 41mn
Bit rate mode : Constant
Bit rate : 224 Kbps
Channel(s) : 6 channels
Channel positions : Front: L C R, Side: L R, LFE
Sampling rate : 48.0 KHz
Bit depth : 16 bits
Compression mode : Lossy
Delay relative to video : 1mn 5s
Stream size : 162 MiB (12%)
Language : English
Default : Yes
Forced : No
PART_NUMBER : 1
 
http://www.shotpix.com/images/58726386736051463775.jpg